<svg width="22" height="21" viewBox="0 0 22 21" fill="none" xmlns="http://www.w3.org/2000/svg">
<path id="Vector" d="M11.0251 0.531006C5.29392 0.531006 0.650391 5.11171 0.650391 10.7654C0.650391 16.419 5.29392 20.9997 11.0251 20.9997C16.7563 20.9997 21.3998 16.419 21.3998 10.7654C21.3998 5.11171 16.7563 0.531006 11.0251 0.531006ZM13.4138 14.9788L9.72409 12.3335C9.59441 12.2386 9.51911 12.0901 9.51911 11.9332L9.51911 4.98791C9.51911 4.71554 9.74501 4.4927 10.0211 4.4927L12.0291 4.4927C12.3052 4.4927 12.5311 4.71554 12.5311 4.98791L12.5311 10.6705L15.1876 12.577C15.4135 12.738 15.4595 13.0475 15.2963 13.2703L14.1166 14.8715C13.9535 15.0902 13.6397 15.1397 13.4138 14.9788Z" fill="#FE794F"/>
</svg>
