<svg width="101" height="211" viewBox="0 0 101 211" fill="none" xmlns="http://www.w3.org/2000/svg">
<g id="Abstract ">
<g id="Group 65">
<g id="Group 62">
<g id="Group 61">
<circle id="Ellipse 15" cx="31.9415" cy="199.557" r="6.75589" transform="rotate(-15.179 31.9415 199.557)" fill="#FE794F" fill-opacity="0.6"/>
<ellipse id="Ellipse 16" cx="22.2806" cy="183.673" rx="5.16565" ry="5.24113" transform="rotate(-15.179 22.2806 183.673)" fill="#FE794F" fill-opacity="0.6"/>
<ellipse id="Ellipse 17" cx="12.0363" cy="168.68" rx="4.3705" ry="4.43436" transform="rotate(-15.179 12.0363 168.68)" fill="#FE794F" fill-opacity="0.6"/>
</g>
</g>
<g id="Group 63">
<g id="Group 60">
<circle id="Ellipse 15_2" cx="63.051" cy="175.909" r="6.75589" transform="rotate(-32.8431 63.051 175.909)" fill="#FE794F" fill-opacity="0.6"/>
<ellipse id="Ellipse 16_2" cx="49.0252" cy="163.707" rx="5.16565" ry="5.24113" transform="rotate(-32.8431 49.0252 163.707)" fill="#FE794F" fill-opacity="0.6"/>
<ellipse id="Ellipse 17_2" cx="34.7145" cy="152.529" rx="4.3705" ry="4.43436" transform="rotate(-32.8431 34.7145 152.529)" fill="#FE794F" fill-opacity="0.6"/>
</g>
<g id="Group 61_2">
<circle id="Ellipse 15_3" cx="83.639" cy="148.896" r="6.75589" transform="rotate(-47.868 83.639 148.896)" fill="#FE794F" fill-opacity="0.6"/>
<ellipse id="Ellipse 16_3" cx="66.9293" cy="140.746" rx="5.16565" ry="5.24113" transform="rotate(-47.868 66.9293 140.746)" fill="#FE794F" fill-opacity="0.6"/>
<ellipse id="Ellipse 17_3" cx="50.2107" cy="133.661" rx="4.3705" ry="4.43436" transform="rotate(-47.868 50.2107 133.661)" fill="#FE794F" fill-opacity="0.6"/>
</g>
</g>
</g>
<g id="Group 66">
<g id="Group 62_2">
<g id="Group 60_2">
<circle id="Ellipse 15_4" cx="88.4388" cy="103.288" r="6.75589" transform="rotate(-88.453 88.4388 103.288)" fill="#FE794F" fill-opacity="0.6"/>
<ellipse id="Ellipse 16_4" cx="70.447" cy="107.969" rx="5.16565" ry="5.24113" transform="rotate(-88.453 70.447 107.969)" fill="#FE794F" fill-opacity="0.6"/>
<ellipse id="Ellipse 17_4" cx="53.1406" cy="113.465" rx="4.3705" ry="4.43436" transform="rotate(-88.453 53.1406 113.465)" fill="#FE794F" fill-opacity="0.6"/>
</g>
<g id="Group 61_3">
<circle id="Ellipse 15_5" cx="77.7765" cy="71.0394" r="6.75589" transform="rotate(-103.478 77.7765 71.0394)" fill="#FE794F" fill-opacity="0.6"/>
<ellipse id="Ellipse 16_5" cx="61.6135" cy="80.225" rx="5.16565" ry="5.24113" transform="rotate(-103.478 61.6135 80.225)" fill="#FE794F" fill-opacity="0.6"/>
<ellipse id="Ellipse 17_5" cx="46.3229" cy="90.0193" rx="4.3705" ry="4.43436" transform="rotate(-103.478 46.3229 90.0193)" fill="#FE794F" fill-opacity="0.6"/>
</g>
</g>
<g id="Group 63_2">
<g id="Group 60_3">
<circle id="Ellipse 15_6" cx="55.0648" cy="39.2431" r="6.75589" transform="rotate(-121.142 55.0648 39.2431)" fill="#FE794F" fill-opacity="0.6"/>
<ellipse id="Ellipse 16_6" cx="42.4511" cy="52.9003" rx="5.16565" ry="5.24113" transform="rotate(-121.142 42.4511 52.9003)" fill="#FE794F" fill-opacity="0.6"/>
<ellipse id="Ellipse 17_6" cx="30.8534" cy="66.8723" rx="4.3705" ry="4.43436" transform="rotate(-121.142 30.8534 66.8723)" fill="#FE794F" fill-opacity="0.6"/>
</g>
<g id="Group 61_4">
<circle id="Ellipse 15_7" cx="28.6746" cy="17.861" r="6.75589" transform="rotate(-136.167 28.6746 17.861)" fill="#FE794F" fill-opacity="0.6"/>
<ellipse id="Ellipse 16_7" cx="20.0324" cy="34.3214" rx="5.16565" ry="5.24113" transform="rotate(-136.167 20.0324 34.3214)" fill="#FE794F" fill-opacity="0.6"/>
<ellipse id="Ellipse 17_7" cx="12.4535" cy="50.8223" rx="4.3705" ry="4.43436" transform="rotate(-136.167 12.4535 50.8223)" fill="#FE794F" fill-opacity="0.6"/>
</g>
</g>
</g>
</g>
</svg>
